<?xml version="1.0" encoding="UTF-8"?> <svg xmlns="http://www.w3.org/2000/svg" width="300" height="300" viewBox="0 0 300 300" fill="none"><path d="M188.377 39.0922C206.012 27.1967 227.019 19.4676 245.299 25.2334L246.168 25.5179C267.316 32.7192 279.042 45.3726 284.807 60.7633C290.603 76.2378 290.424 94.6222 287.416 113.289C285.203 127.023 277.051 142.723 265.545 158.917C254.059 175.082 239.329 191.608 224.127 206.979C193.724 237.72 161.539 263.737 149.929 272.878C147.812 274.544 144.983 274.464 142.964 272.681C131.883 262.891 101.159 235.032 72.1116 202.188C57.5873 185.766 43.5046 168.123 32.5107 150.889C21.501 133.631 13.665 116.901 11.5003 102.288C8.86524 84.5 9.90363 68.15 16.6986 54.8692C23.4652 41.644 36.0511 31.2486 56.9754 25.5432C77.6147 19.9157 97.8856 27.7585 114.671 39.6231C131.443 51.4783 144.486 67.1834 150.528 76.7457L152.075 79.193L153.093 76.4829C154.821 71.8867 159.126 65.5688 165.326 58.8336C171.5 52.1268 179.461 45.107 188.377 39.0922Z" fill="#5F7F57" stroke="black" stroke-width="2.8794"></path><mask id="mask0_2703_90" style="mask-type:alpha" maskUnits="userSpaceOnUse" x="8" y="21" width="283" height="255"><path d="M246.616 24.155C208.343 11.118 159.026 56.568 151.73 75.9767C139.471 56.5761 99.0538 12.5739 56.5811 24.1547C14.1098 35.7352 4.7454 66.6167 10.061 102.5C18.8965 162.144 119.797 254.149 141.995 273.76C144.535 276.004 148.141 276.106 150.804 274.009C174.061 255.699 279.757 169.77 288.822 113.518C294.872 75.9767 289.689 38.8221 246.616 24.155Z" fill="#7D0F22"></path></mask><g mask="url(#mask0_2703_90)"><path d="M480.151 -155.741C488.216 -148.589 482.459 -134.743 472.113 -129.229L471.194 -128.753C454.151 -120.149 432.455 -122.085 427.427 -122.683L348.239 -39.3072C349.94 -36.6549 349.504 -33.0858 347.072 -30.931C344.932 -29.0353 341.893 -28.8072 339.539 -30.1471L329.267 -19.332C327.633 -14.2217 328.744 -8.4497 332.55 -4.27141C328.258 -7.85846 322.521 -8.74011 317.522 -6.96434L303.238 8.07569C304.678 10.6827 304.176 14.0286 301.853 16.086C299.826 17.8822 296.991 18.181 294.697 17.0676L243.502 70.9722C247.452 69.7988 252.487 69.2321 255.248 71.5772C260.304 75.8719 259.117 85.4035 252.824 88.9316C240.993 95.5639 219.471 93.7259 219.343 93.7149C219.332 93.6397 216.13 72.8549 225.135 58.8342L225.574 58.1711C230.04 51.6184 239.144 53.6752 241.157 59.3777C242.235 62.4294 241.944 66.3293 241.041 69.7835L292.622 15.4733C290.292 12.783 290.555 8.71245 293.225 6.34632C295.611 4.23321 299.114 4.19078 301.539 6.08427L314.711 -7.78542C316.96 -13.1784 315.997 -19.5586 311.881 -24.0762C316.509 -20.2088 322.816 -19.4865 328.067 -21.8487L337.581 -31.8644C335.535 -34.5489 335.877 -38.3965 338.444 -40.6706C340.722 -42.6888 344.021 -42.8191 346.425 -41.177L425.812 -124.762C424.16 -131.146 419.865 -152.134 429.118 -170.22L429.659 -171.246C430.511 -172.811 431.467 -174.352 432.539 -175.857C440.02 -186.348 454.606 -185.382 457.68 -176.048C459.714 -169.874 461.114 -163.45 458.669 -157.13C464.952 -159.767 474.124 -160.795 479.879 -155.975L480.151 -155.741ZM255.713 80.1961C256.077 77.4911 255.26 75.0037 253.563 73.5617C252.61 72.7514 250.777 72.3662 248.173 72.6503C245.692 72.921 243.118 73.7375 241.369 74.5159L235.779 77.0036L237.865 71.251C239.201 67.5653 239.743 63.1874 238.704 60.2448L238.704 60.244C237.394 56.537 230.981 54.8591 227.725 59.6357C223.338 66.0777 221.824 74.3995 221.471 81.3415C221.297 84.7767 221.41 87.7932 221.567 89.947C221.602 90.4264 221.641 90.8621 221.677 91.2494C222.068 91.2676 222.508 91.287 222.99 91.3026C225.147 91.3721 228.144 91.397 231.497 91.2197C238.313 90.8591 246.17 89.6782 251.552 86.6616C253.871 85.3613 255.352 82.8839 255.713 80.1961ZM427.984 -139.06L426.709 -141.286L437.162 -149.922L426.64 -142.982L425.97 -143.792C425.98 -142.15 426.045 -140.557 426.151 -139.033C426.47 -134.494 427.147 -130.613 427.744 -127.873C427.81 -127.568 427.876 -127.278 427.94 -127.002L435.897 -135.381L429.419 -133.416L428.448 -135.82L443.765 -143.664L445.439 -145.426L427.984 -139.06ZM429.689 -125.065C429.754 -125.059 429.82 -125.052 429.888 -125.046L429.851 -125.236L429.689 -125.065ZM432.377 -124.861C434.917 -124.705 438.166 -124.606 441.829 -124.728C447.924 -124.933 455.048 -125.747 461.92 -127.854L432.377 -124.861ZM440.936 -136.908L432.52 -128.047L442.05 -130.818L441.231 -133.223L463.345 -143.699L440.936 -136.908ZM427.733 -159.116C426.602 -154.655 426.102 -150.197 425.993 -146.006L447.487 -168.074L427.733 -159.116ZM480.574 -142.713C482.071 -147.093 481.441 -151.119 478.425 -153.794C476.41 -155.581 473.727 -156.494 470.72 -156.699L471.489 -154.936L445.345 -141.549L444.562 -140.725L479.37 -151.273L480.303 -148.852L452.617 -135.739L477.939 -141.253L478.58 -138.731L443.889 -128.642L466.397 -130.923L466.528 -129.627L466.542 -129.496C468.022 -130.099 469.476 -130.772 470.889 -131.525C475.487 -133.976 479.066 -138.301 480.574 -142.713ZM434.196 -144.097L449.465 -149.666L455.416 -155.931L456.243 -158.068C456.896 -159.758 457.236 -161.471 457.334 -163.213L434.196 -144.097ZM455.209 -175.233C454.371 -177.776 452.324 -179.592 449.598 -180.368L450.188 -179.469L433.275 -164.488L452.696 -173.293L454.166 -171.2L435.247 -151.777L455.93 -165.417L457.347 -163.501C457.501 -167.256 456.555 -171.148 455.209 -175.233ZM432.619 -171.195C432.388 -170.799 432.162 -170.402 431.945 -170.003C430.98 -168.227 430.159 -166.414 429.46 -164.584L441.734 -175.459L432.619 -171.195ZM450.928 -147.428L450.75 -147.241L451.584 -147.667L450.928 -147.428ZM468.866 -156.74C465.655 -156.663 462.378 -155.863 459.677 -154.73L456.661 -153.465L454.954 -151.668L468.866 -156.74ZM446.712 -180.785C442.938 -180.859 438.664 -179.198 435.481 -175.406L446.967 -180.778C446.882 -180.781 446.797 -180.784 446.712 -180.785Z" fill="black"></path></g><g filter="url(#filter0_d_2703_90)"><path d="M224.988 87.9001C230.292 94.0575 239.728 94.6245 237.318 96.7001C234.908 98.7757 222.656 100.634 217.352 94.477C212.049 88.3196 215.703 76.478 218.113 74.4024C220.523 72.3268 219.685 81.7428 224.988 87.9001Z" fill="#5F7F57"></path></g><defs><filter id="filter0_d_2703_90" x="213.041" y="69.6463" width="29.1249" height="30.6171" filterUnits="userSpaceOnUse" color-interpolation-filters="sRGB"><feFlood flood-opacity="0" result="BackgroundImageFix"></feFlood><feColorMatrix in="SourceAlpha" type="matrix" values="0 0 0 0 0 0 0 0 0 0 0 0 0 0 0 0 0 0 127 0" result="hardAlpha"></feColorMatrix><feOffset dx="1.4397" dy="-1.4397"></feOffset><feGaussianBlur stdDeviation="1.51169"></feGaussianBlur><feComposite in2="hardAlpha" operator="out"></feComposite><feColorMatrix type="matrix" values="0 0 0 0 0 0 0 0 0 0 0 0 0 0 0 0 0 0 0.25 0"></feColorMatrix><feBlend mode="normal" in2="BackgroundImageFix" result="effect1_dropShadow_2703_90"></feBlend><feBlend mode="normal" in="SourceGraphic" in2="effect1_dropShadow_2703_90" result="shape"></feBlend></filter></defs></svg> 